<svg xmlns="http://www.w3.org/2000/svg" xmlns:xlink="http://www.w3.org/1999/xlink" width="1920" zoomAndPan="magnify" viewBox="0 0 1440 809.999993" height="1080" preserveAspectRatio="xMidYMid meet" version="1.0"><defs><g/></defs><g fill="#ff66c4" fill-opacity="1"><g transform="translate(194.91105, 376.624396)"><g><path d="M 216.6875 4.765625 C 202.375 4.765625 189.519531 1.453125 178.125 -5.171875 C 166.726562 -11.796875 157.78125 -20.875 151.28125 -32.40625 C 144.789062 -43.9375 141.546875 -57.390625 141.546875 -72.765625 L 141.546875 -211.125 C 141.546875 -218.28125 139.820312 -224.769531 136.375 -230.59375 C 132.925781 -236.425781 128.285156 -241.066406 122.453125 -244.515625 C 116.628906 -247.960938 110.269531 -249.6875 103.375 -249.6875 C 96.476562 -249.6875 90.179688 -247.960938 84.484375 -244.515625 C 78.785156 -241.066406 74.28125 -236.425781 70.96875 -230.59375 C 67.65625 -224.769531 66 -218.28125 66 -211.125 L 66 0 L 27.828125 0 L 27.828125 -205.953125 C 27.828125 -220.535156 31.007812 -233.65625 37.375 -245.3125 C 43.738281 -256.976562 52.617188 -266.191406 64.015625 -272.953125 C 75.410156 -279.710938 88.53125 -283.09375 103.375 -283.09375 C 118.476562 -283.09375 131.726562 -279.710938 143.125 -272.953125 C 154.53125 -266.191406 163.410156 -256.976562 169.765625 -245.3125 C 176.128906 -233.65625 179.3125 -220.535156 179.3125 -205.953125 L 179.3125 -67.59375 C 179.3125 -60.164062 181.035156 -53.601562 184.484375 -47.90625 C 187.929688 -42.207031 192.503906 -37.632812 198.203125 -34.1875 C 203.898438 -30.75 210.0625 -29.03125 216.6875 -29.03125 C 223.3125 -29.03125 229.40625 -30.75 234.96875 -34.1875 C 240.539062 -37.632812 244.984375 -42.207031 248.296875 -47.90625 C 251.609375 -53.601562 253.265625 -60.164062 253.265625 -67.59375 L 253.265625 -205.953125 C 253.265625 -220.535156 256.507812 -233.65625 263 -245.3125 C 269.5 -256.976562 278.445312 -266.191406 289.84375 -272.953125 C 301.238281 -279.710938 314.492188 -283.09375 329.609375 -283.09375 C 344.453125 -283.09375 357.570312 -279.710938 368.96875 -272.953125 C 380.363281 -266.191406 389.238281 -256.976562 395.59375 -245.3125 C 401.957031 -233.65625 405.140625 -220.535156 405.140625 -205.953125 L 405.140625 0 L 366.984375 0 L 366.984375 -211.125 C 366.984375 -218.28125 365.328125 -224.769531 362.015625 -230.59375 C 358.703125 -236.425781 354.191406 -241.066406 348.484375 -244.515625 C 342.785156 -247.960938 336.492188 -249.6875 329.609375 -249.6875 C 322.453125 -249.6875 316.023438 -247.960938 310.328125 -244.515625 C 304.628906 -241.066406 300.054688 -236.425781 296.609375 -230.59375 C 293.160156 -224.769531 291.4375 -218.28125 291.4375 -211.125 L 291.4375 -72.765625 C 291.4375 -57.390625 288.1875 -43.9375 281.6875 -32.40625 C 275.195312 -20.875 266.316406 -11.796875 255.046875 -5.171875 C 243.785156 1.453125 231 4.765625 216.6875 4.765625 Z M 216.6875 4.765625 "/></g></g></g><g fill="#ff66c4" fill-opacity="1"><g transform="translate(599.247728, 376.624396)"><g><path d="M 132 0 C 109.738281 0 89.992188 -4.171875 72.765625 -12.515625 C 55.535156 -20.867188 42.082031 -32.664062 32.40625 -47.90625 C 22.726562 -63.144531 17.890625 -80.972656 17.890625 -101.390625 C 17.890625 -121.535156 22 -139.625 30.21875 -155.65625 C 38.4375 -171.695312 49.832031 -184.351562 64.40625 -193.625 C 78.988281 -202.90625 95.953125 -207.546875 115.296875 -207.546875 C 136.242188 -207.546875 153.671875 -203.035156 167.578125 -194.015625 C 181.492188 -185.003906 191.898438 -172.878906 198.796875 -157.640625 C 205.691406 -142.398438 209.140625 -125.375 209.140625 -106.5625 C 209.140625 -103.644531 209.070312 -100.59375 208.9375 -97.40625 C 208.800781 -94.226562 208.46875 -91.445312 207.9375 -89.0625 L 56.859375 -89.0625 C 58.179688 -76.601562 62.285156 -66.066406 69.171875 -57.453125 C 76.066406 -48.835938 84.878906 -42.34375 95.609375 -37.96875 C 106.347656 -33.59375 118.210938 -31.40625 131.203125 -31.40625 L 184.078125 -31.40625 L 184.078125 0 Z M 56.453125 -114.90625 L 172.15625 -114.90625 C 172.15625 -119.9375 171.625 -125.300781 170.5625 -131 C 169.507812 -136.707031 167.65625 -142.273438 165 -147.703125 C 162.351562 -153.140625 158.84375 -158.046875 154.46875 -162.421875 C 150.09375 -166.796875 144.65625 -170.304688 138.15625 -172.953125 C 131.664062 -175.597656 124.046875 -176.921875 115.296875 -176.921875 C 106.023438 -176.921875 97.875 -175.128906 90.84375 -171.546875 C 83.820312 -167.972656 77.789062 -163.203125 72.75 -157.234375 C 67.71875 -151.273438 63.875 -144.582031 61.21875 -137.15625 C 58.570312 -129.738281 56.984375 -122.320312 56.453125 -114.90625 Z M 56.453125 -114.90625 "/></g></g></g><g fill="#ff66c4" fill-opacity="1"><g transform="translate(797.240596, 376.624396)"><g><path d="M 29.03125 0 L 29.03125 -290.25 L 65.609375 -290.25 L 65.609375 0 Z M 29.03125 0 "/></g></g></g><g fill="#ff66c4" fill-opacity="1"><g transform="translate(863.23701, 376.624396)"><g><path d="M 29.03125 0 L 29.03125 -290.25 L 65.609375 -290.25 L 65.609375 -176.53125 C 73.816406 -187.132812 83.816406 -194.953125 95.609375 -199.984375 C 107.410156 -205.023438 119.675781 -207.546875 132.40625 -207.546875 C 150.425781 -207.546875 166.0625 -203.765625 179.3125 -196.203125 C 192.5625 -188.648438 202.894531 -178.113281 210.3125 -164.59375 C 217.738281 -151.082031 221.453125 -135.316406 221.453125 -117.296875 L 221.453125 0 L 184.875 0 L 184.875 -116.890625 C 184.875 -129.085938 182.09375 -139.625 176.53125 -148.5 C 170.96875 -157.382812 163.613281 -164.210938 154.46875 -168.984375 C 145.320312 -173.753906 135.578125 -176.140625 125.234375 -176.140625 C 114.898438 -176.140625 105.226562 -173.816406 96.21875 -169.171875 C 87.207031 -164.535156 79.851562 -157.84375 74.15625 -149.09375 C 68.457031 -140.351562 65.609375 -129.882812 65.609375 -117.6875 L 65.609375 0 Z M 29.03125 0 "/></g></g></g><g fill="#ff66c4" fill-opacity="1"><g transform="translate(1085.084633, 376.624396)"><g><path d="M 124.453125 4.765625 C 103.773438 4.765625 85.484375 0.0625 69.578125 -9.34375 C 53.671875 -18.75 41.078125 -31.46875 31.796875 -47.5 C 22.523438 -63.539062 17.890625 -81.503906 17.890625 -101.390625 C 17.890625 -121.265625 22.523438 -139.21875 31.796875 -155.25 C 41.078125 -171.289062 53.671875 -184.015625 69.578125 -193.421875 C 85.484375 -202.835938 103.773438 -207.546875 124.453125 -207.546875 C 145.117188 -207.546875 163.46875 -202.835938 179.5 -193.421875 C 195.539062 -184.015625 208.132812 -171.359375 217.28125 -155.453125 C 226.425781 -139.554688 231 -121.535156 231 -101.390625 C 231 -81.503906 226.425781 -63.539062 217.28125 -47.5 C 208.132812 -31.46875 195.539062 -18.75 179.5 -9.34375 C 163.46875 0.0625 145.117188 4.765625 124.453125 4.765625 Z M 124.453125 -26.640625 C 138.492188 -26.640625 150.679688 -29.953125 161.015625 -36.578125 C 171.359375 -43.203125 179.445312 -52.144531 185.28125 -63.40625 C 191.113281 -74.675781 194.03125 -87.335938 194.03125 -101.390625 C 194.03125 -115.429688 191.113281 -128.082031 185.28125 -139.34375 C 179.445312 -150.613281 171.359375 -159.5625 161.015625 -166.1875 C 150.679688 -172.820312 138.492188 -176.140625 124.453125 -176.140625 C 110.660156 -176.140625 98.53125 -172.820312 88.0625 -166.1875 C 77.59375 -159.5625 69.441406 -150.613281 63.609375 -139.34375 C 57.785156 -128.082031 54.875 -115.429688 54.875 -101.390625 C 54.875 -87.335938 57.785156 -74.675781 63.609375 -63.40625 C 69.441406 -52.144531 77.59375 -43.203125 88.0625 -36.578125 C 98.53125 -29.953125 110.660156 -26.640625 124.453125 -26.640625 Z M 124.453125 -26.640625 "/></g></g></g><g fill="#ff66c4" fill-opacity="1"><g transform="translate(1305.341913, 376.624396)"><g><path d="M 27.828125 0 L 27.828125 -145.125 C 27.828125 -163.144531 32.929688 -177.253906 43.140625 -187.453125 C 53.347656 -197.660156 67.460938 -202.765625 85.484375 -202.765625 L 127.234375 -202.765625 L 127.234375 -171.359375 L 92.234375 -171.359375 C 83.492188 -171.359375 76.671875 -168.835938 71.765625 -163.796875 C 66.859375 -158.765625 64.40625 -151.742188 64.40625 -142.734375 L 64.40625 0 Z M 27.828125 0 "/></g></g></g><g fill="#8c52ff" fill-opacity="1"><g transform="translate(194.91105, 708.710016)"><g><path d="M 29.03125 0 L 29.03125 -202.765625 L 66 -202.765625 L 66 0 Z M 47.703125 -234.96875 C 41.078125 -234.96875 35.3125 -237.421875 30.40625 -242.328125 C 25.5 -247.234375 23.046875 -253 23.046875 -259.625 C 23.046875 -266.25 25.5 -272.007812 30.40625 -276.90625 C 35.3125 -281.8125 41.078125 -284.265625 47.703125 -284.265625 C 54.328125 -284.265625 60.09375 -281.8125 65 -276.90625 C 69.90625 -272.007812 72.359375 -266.25 72.359375 -259.625 C 72.359375 -253 69.90625 -247.234375 65 -242.328125 C 60.09375 -237.421875 54.328125 -234.96875 47.703125 -234.96875 Z M 47.703125 -234.96875 "/></g></g></g><g fill="#8c52ff" fill-opacity="1"><g transform="translate(260.907458, 708.710016)"><g><path d="M 122.453125 4.765625 C 107.078125 4.765625 93.03125 2.316406 80.3125 -2.578125 C 67.59375 -7.484375 56.59375 -14.707031 47.3125 -24.25 C 38.03125 -33.789062 30.804688 -45.253906 25.640625 -58.640625 C 20.472656 -72.023438 17.890625 -87.066406 17.890625 -103.765625 C 17.890625 -124.972656 22.195312 -143.328125 30.8125 -158.828125 C 39.425781 -174.335938 51.21875 -186.332031 66.1875 -194.8125 C 81.164062 -203.300781 97.9375 -207.546875 116.5 -207.546875 C 126.832031 -207.546875 136.703125 -205.820312 146.109375 -202.375 C 155.523438 -198.925781 163.941406 -194.15625 171.359375 -188.0625 C 178.785156 -181.96875 184.617188 -174.8125 188.859375 -166.59375 L 189.65625 -166.59375 L 189.65625 -290.25 L 226.234375 -290.25 L 226.234375 -102.578125 C 226.234375 -80.046875 221.660156 -60.757812 212.515625 -44.71875 C 203.367188 -28.6875 191.039062 -16.429688 175.53125 -7.953125 C 160.03125 0.523438 142.335938 4.765625 122.453125 4.765625 Z M 122.453125 -26.640625 C 134.910156 -26.640625 146.175781 -29.6875 156.25 -35.78125 C 166.320312 -41.875 174.335938 -50.488281 180.296875 -61.625 C 186.265625 -72.757812 189.25 -85.878906 189.25 -100.984375 C 189.25 -116.359375 186.265625 -129.675781 180.296875 -140.9375 C 174.335938 -152.207031 166.320312 -160.890625 156.25 -166.984375 C 146.175781 -173.085938 134.78125 -176.140625 122.0625 -176.140625 C 109.601562 -176.140625 98.269531 -172.957031 88.0625 -166.59375 C 77.863281 -160.226562 69.78125 -151.476562 63.8125 -140.34375 C 57.851562 -129.21875 54.875 -116.234375 54.875 -101.390625 C 54.875 -86.015625 57.921875 -72.757812 64.015625 -61.625 C 70.109375 -50.488281 78.253906 -41.875 88.453125 -35.78125 C 98.660156 -29.6875 109.992188 -26.640625 122.453125 -26.640625 Z M 122.453125 -26.640625 "/></g></g></g><g fill="#8c52ff" fill-opacity="1"><g transform="translate(486.333307, 708.710016)"><g><path d="M 113.3125 4.765625 C 93.695312 4.765625 76.734375 0.0625 62.421875 -9.34375 C 48.109375 -18.75 37.109375 -31.535156 29.421875 -47.703125 C 21.734375 -63.878906 17.890625 -81.773438 17.890625 -101.390625 C 17.890625 -121.265625 22.128906 -139.21875 30.609375 -155.25 C 39.097656 -171.289062 51.289062 -184.015625 67.1875 -193.421875 C 83.09375 -202.835938 102.179688 -207.546875 124.453125 -207.546875 C 145.921875 -207.546875 164.335938 -202.90625 179.703125 -193.625 C 195.078125 -184.351562 206.941406 -171.765625 215.296875 -155.859375 C 223.648438 -139.953125 227.828125 -122.191406 227.828125 -102.578125 L 227.828125 0 L 190.84375 0 L 190.84375 -41.34375 L 190.046875 -41.34375 C 186.066406 -33.65625 180.695312 -26.300781 173.9375 -19.28125 C 167.1875 -12.257812 158.773438 -6.492188 148.703125 -1.984375 C 138.628906 2.515625 126.832031 4.765625 113.3125 4.765625 Z M 122.859375 -26.640625 C 136.109375 -26.640625 147.832031 -29.882812 158.03125 -36.375 C 168.238281 -42.875 176.191406 -51.890625 181.890625 -63.421875 C 187.597656 -74.953125 190.453125 -87.875 190.453125 -102.1875 C 190.453125 -116.226562 187.734375 -128.816406 182.296875 -139.953125 C 176.859375 -151.085938 169.101562 -159.898438 159.03125 -166.390625 C 148.957031 -172.890625 137.164062 -176.140625 123.65625 -176.140625 C 109.34375 -176.140625 97.082031 -172.820312 86.875 -166.1875 C 76.664062 -159.5625 68.84375 -150.613281 63.40625 -139.34375 C 57.976562 -128.082031 55.265625 -115.296875 55.265625 -100.984375 C 55.265625 -87.203125 57.914062 -74.675781 63.21875 -63.40625 C 68.519531 -52.144531 76.207031 -43.203125 86.28125 -36.578125 C 96.351562 -29.953125 108.546875 -26.640625 122.859375 -26.640625 Z M 122.859375 -26.640625 "/></g></g></g><g fill="#8c52ff" fill-opacity="1"><g transform="translate(714.542183, 708.710016)"><g><path d="M 122.453125 4.765625 C 107.078125 4.765625 93.03125 2.316406 80.3125 -2.578125 C 67.59375 -7.484375 56.59375 -14.707031 47.3125 -24.25 C 38.03125 -33.789062 30.804688 -45.253906 25.640625 -58.640625 C 20.472656 -72.023438 17.890625 -87.066406 17.890625 -103.765625 C 17.890625 -124.972656 22.195312 -143.328125 30.8125 -158.828125 C 39.425781 -174.335938 51.21875 -186.332031 66.1875 -194.8125 C 81.164062 -203.300781 97.9375 -207.546875 116.5 -207.546875 C 126.832031 -207.546875 136.703125 -205.820312 146.109375 -202.375 C 155.523438 -198.925781 163.941406 -194.15625 171.359375 -188.0625 C 178.785156 -181.96875 184.617188 -174.8125 188.859375 -166.59375 L 189.65625 -166.59375 L 189.65625 -290.25 L 226.234375 -290.25 L 226.234375 -102.578125 C 226.234375 -80.046875 221.660156 -60.757812 212.515625 -44.71875 C 203.367188 -28.6875 191.039062 -16.429688 175.53125 -7.953125 C 160.03125 0.523438 142.335938 4.765625 122.453125 4.765625 Z M 122.453125 -26.640625 C 134.910156 -26.640625 146.175781 -29.6875 156.25 -35.78125 C 166.320312 -41.875 174.335938 -50.488281 180.296875 -61.625 C 186.265625 -72.757812 189.25 -85.878906 189.25 -100.984375 C 189.25 -116.359375 186.265625 -129.675781 180.296875 -140.9375 C 174.335938 -152.207031 166.320312 -160.890625 156.25 -166.984375 C 146.175781 -173.085938 134.78125 -176.140625 122.0625 -176.140625 C 109.601562 -176.140625 98.269531 -172.957031 88.0625 -166.59375 C 77.863281 -160.226562 69.78125 -151.476562 63.8125 -140.34375 C 57.851562 -129.21875 54.875 -116.234375 54.875 -101.390625 C 54.875 -86.015625 57.921875 -72.757812 64.015625 -61.625 C 70.109375 -50.488281 78.253906 -41.875 88.453125 -35.78125 C 98.660156 -29.6875 109.992188 -26.640625 122.453125 -26.640625 Z M 122.453125 -26.640625 "/></g></g></g><g fill="#8c52ff" fill-opacity="1"><g transform="translate(939.968032, 708.710016)"><g><path d="M 132 0 C 109.738281 0 89.992188 -4.171875 72.765625 -12.515625 C 55.535156 -20.867188 42.082031 -32.664062 32.40625 -47.90625 C 22.726562 -63.144531 17.890625 -80.972656 17.890625 -101.390625 C 17.890625 -121.535156 22 -139.625 30.21875 -155.65625 C 38.4375 -171.695312 49.832031 -184.351562 64.40625 -193.625 C 78.988281 -202.90625 95.953125 -207.546875 115.296875 -207.546875 C 136.242188 -207.546875 153.671875 -203.035156 167.578125 -194.015625 C 181.492188 -185.003906 191.898438 -172.878906 198.796875 -157.640625 C 205.691406 -142.398438 209.140625 -125.375 209.140625 -106.5625 C 209.140625 -103.644531 209.070312 -100.59375 208.9375 -97.40625 C 208.800781 -94.226562 208.46875 -91.445312 207.9375 -89.0625 L 56.859375 -89.0625 C 58.179688 -76.601562 62.285156 -66.066406 69.171875 -57.453125 C 76.066406 -48.835938 84.878906 -42.34375 95.609375 -37.96875 C 106.347656 -33.59375 118.210938 -31.40625 131.203125 -31.40625 L 184.078125 -31.40625 L 184.078125 0 Z M 56.453125 -114.90625 L 172.15625 -114.90625 C 172.15625 -119.9375 171.625 -125.300781 170.5625 -131 C 169.507812 -136.707031 167.65625 -142.273438 165 -147.703125 C 162.351562 -153.140625 158.84375 -158.046875 154.46875 -162.421875 C 150.09375 -166.796875 144.65625 -170.304688 138.15625 -172.953125 C 131.664062 -175.597656 124.046875 -176.921875 115.296875 -176.921875 C 106.023438 -176.921875 97.875 -175.128906 90.84375 -171.546875 C 83.820312 -167.972656 77.789062 -163.203125 72.75 -157.234375 C 67.71875 -151.273438 63.875 -144.582031 61.21875 -137.15625 C 58.570312 -129.738281 56.984375 -122.320312 56.453125 -114.90625 Z M 56.453125 -114.90625 "/></g></g></g><g fill="#ff980d" fill-opacity="1"><g transform="translate(147.307733, 735.601057)"><g><path d="M 1.890625 -80.53125 C 1.890625 -66.789062 -1.066406 -54.5625 -6.984375 -43.84375 C -12.910156 -33.132812 -21.039062 -24.816406 -31.375 -18.890625 C -41.707031 -12.972656 -53.300781 -10.015625 -66.15625 -10.015625 C -78.882812 -10.015625 -90.414062 -13.007812 -100.75 -19 C -111.082031 -24.988281 -119.242188 -33.367188 -125.234375 -44.140625 C -131.222656 -54.910156 -134.21875 -67.164062 -134.21875 -80.90625 C -134.21875 -95.519531 -131.503906 -108.054688 -126.078125 -118.515625 L -116.25 -118.515625 C -119.40625 -112.472656 -121.582031 -106.363281 -122.78125 -100.1875 C -123.976562 -94.007812 -124.578125 -87.582031 -124.578125 -80.90625 C -124.578125 -69.5625 -122.023438 -59.414062 -116.921875 -50.46875 C -111.816406 -41.519531 -104.789062 -34.523438 -95.84375 -29.484375 C -86.894531 -24.441406 -77 -21.921875 -66.15625 -21.921875 C -55.195312 -21.921875 -45.273438 -24.410156 -36.390625 -29.390625 C -27.503906 -34.367188 -20.507812 -41.300781 -15.40625 -50.1875 C -10.300781 -59.070312 -7.75 -69.1875 -7.75 -80.53125 C -7.75 -87.707031 -8.347656 -94.414062 -9.546875 -100.65625 C -10.742188 -106.894531 -12.914062 -113.101562 -16.0625 -119.28125 L -6.234375 -119.28125 C -3.085938 -113.101562 -0.945312 -106.925781 0.1875 -100.75 C 1.320312 -94.570312 1.890625 -87.832031 1.890625 -80.53125 Z M 1.890625 -80.53125 "/></g></g></g><g fill="#ff980d" fill-opacity="1"><g transform="translate(147.307733, 604.238239)"><g><path d="M -132.328125 -20.03125 L -132.328125 -31.375 L -10.015625 -31.375 L -10.015625 -103.21875 L 0 -103.21875 L 0 -20.03125 Z M -132.328125 -20.03125 "/></g></g></g><g fill="#ff980d" fill-opacity="1"><g transform="translate(147.307733, 495.367775)"><g><path d="M 1.890625 -71.078125 C 1.890625 -50.160156 -3.710938 -36.078125 -14.921875 -28.828125 C -26.140625 -21.578125 -40.507812 -17.953125 -58.03125 -17.953125 L -132.328125 -17.953125 L -132.328125 -29.296875 L -55.015625 -29.296875 C -40.640625 -29.296875 -29.289062 -32.382812 -20.96875 -38.5625 C -12.65625 -44.738281 -8.5 -55.578125 -8.5 -71.078125 C -8.5 -86.578125 -12.65625 -97.378906 -20.96875 -103.484375 C -29.289062 -109.597656 -40.640625 -112.65625 -55.015625 -112.65625 L -132.328125 -112.65625 L -132.328125 -124 L -58.03125 -124 C -40.382812 -124 -25.984375 -120.40625 -14.828125 -113.21875 C -3.679688 -106.039062 1.890625 -91.992188 1.890625 -71.078125 Z M 1.890625 -71.078125 "/></g></g></g><g fill="#ff980d" fill-opacity="1"><g transform="translate(147.307733, 353.420327)"><g><path d="M -132.328125 -20.03125 L -132.328125 -77.125 C -132.328125 -92.125 -129.550781 -103.367188 -124 -110.859375 C -118.457031 -118.359375 -110.332031 -122.109375 -99.625 -122.109375 C -91.675781 -122.109375 -85.367188 -120.0625 -80.703125 -115.96875 C -76.046875 -111.875 -72.835938 -105.539062 -71.078125 -96.96875 C -68.929688 -107.8125 -64.957031 -115.65625 -59.15625 -120.5 C -53.363281 -125.351562 -45.867188 -127.78125 -36.671875 -127.78125 C -24.953125 -127.78125 -15.910156 -123.71875 -9.546875 -115.59375 C -3.179688 -107.46875 0 -94.644531 0 -77.125 L 0 -20.03125 Z M -10.390625 -79.015625 C -10.390625 -91.234375 -12.5 -100.429688 -16.71875 -106.609375 C -20.945312 -112.785156 -27.722656 -115.875 -37.046875 -115.875 C -46.367188 -115.875 -53.488281 -112.535156 -58.40625 -105.859375 C -63.320312 -99.179688 -65.78125 -90.234375 -65.78125 -79.015625 L -65.78125 -31.375 L -10.390625 -31.375 Z M -76.171875 -80.71875 C -76.171875 -89.15625 -78.1875 -96.175781 -82.21875 -101.78125 C -86.257812 -107.394531 -92.1875 -110.203125 -100 -110.203125 C -114.613281 -110.203125 -121.921875 -100.375 -121.921875 -80.71875 L -121.921875 -31.375 L -76.171875 -31.375 Z M -76.171875 -80.71875 "/></g></g></g><g fill="#ff980d" fill-opacity="1"><g transform="translate(147.307733, 215.631125)"><g><path d="M -132.328125 -20.03125 L -132.328125 -116.4375 L -121.921875 -116.4375 L -121.921875 -31.375 L -72.78125 -31.375 L -72.78125 -106.984375 L -62.375 -106.984375 L -62.375 -31.375 L -10.390625 -31.375 L -10.390625 -116.4375 L 0 -116.4375 L 0 -20.03125 Z M -132.328125 -20.03125 "/></g></g></g></svg>