<?xml version="1.0" encoding="utf-8"?>
<!-- Generator: Adobe Illustrator 27.5.0, SVG Export Plug-In . SVG Version: 6.00 Build 0)  -->
<svg version="1.1" id="Capa_1" xmlns="http://www.w3.org/2000/svg" xmlns:xlink="http://www.w3.org/1999/xlink" x="0px" y="0px"
	 viewBox="0 0 2122 2122" style="enable-background:new 0 0 2122 2122;" xml:space="preserve">
<g>
	<rect x="0.008" y="0.004" style="fill:#FFFFFF;" width="2121.309" height="2121.313"/>
	<g>
		<g>
			<g>
				<path style="fill:#F4E3CF;" d="M258.043,1307.371c22.172,72.211,53.82,140.266,93.492,202.734l893.527-0.078v16.859
					l-882.539,0.07c13.215,19.742,27.25,38.875,42.047,57.379l896.012-0.074l0.004,38.977l-862.926,0.074
					c153.629,169.996,375.828,276.832,623,276.832c377.773,0,697.234-249.543,802.617-592.773H258.043z"/>
			</g>
			<g>
				<path style="fill:#F4E3CF;" d="M1886.703,1211.004H234.621c3.5,19.371,7.676,38.512,12.48,57.395h1627.117
					C1879.027,1249.516,1883.199,1230.375,1886.703,1211.004z"/>
			</g>
			<g>
				<path style="fill:#F4E3CF;" d="M742.18,794.777v10.055H260.926c-8.262,25.844-15.297,52.231-21.051,79.094h562.859v23.254
					H235.223c-9.195,49.762-14.047,101.051-14.047,153.48c0,45.434,3.66,90.016,10.609,133.488h1657.754
					c6.949-43.473,10.609-88.055,10.609-133.488c0-177.16-54.926-341.465-148.613-476.918H679.754v-23.25h1055.152
					c-20.598-27.723-42.844-54.148-66.633-79.094H619.199v-10.055h1039.258c-152.238-154.414-363.824-250.168-597.797-250.168
					c-370.703,0-685.25,240.293-796.473,573.602H742.18z"/>
			</g>
		</g>
	</g>
	<g>
		
			<line style="fill:none;stroke:#31343C;stroke-width:9.978;stroke-linecap:round;stroke-linejoin:round;stroke-miterlimit:10;" x1="153.445" y1="1670.68" x2="1967.875" y2="1670.68"/>
	</g>
</g>
<g>
	<g>
		<polygon style="fill:#475054;" points="298.184,602.625 295.938,599.359 514.055,362.984 516.313,366.254 		"/>
		<polygon style="fill:#475054;" points="1148.234,605.078 1150.484,601.809 516.445,362.984 514.199,366.254 		"/>
		<g>
			<g>
				<g>
					<rect x="210.621" y="660.742" style="fill:#F4AA2A;" width="1030.5" height="13.219"/>
					<polygon style="fill:#F4AA2A;" points="290.289,596.832 290.289,610.051 1165.5,610.051 1157.48,596.832 					"/>
					<rect x="292.805" y="607.867" style="fill:#C46D1F;" width="868.711" height="4.375"/>
					<rect x="210.621" y="673.961" style="fill:#C46D1F;" width="1030.5" height="4.383"/>
				</g>
				<g>
					<rect x="401.621" y="603.445" style="fill:#F4AA2A;" width="13.215" height="63.906"/>
					<polygon style="fill:#F4AA2A;" points="401.621,667.352 414.836,667.352 375.672,603.445 362.453,603.445 					"/>
				</g>
				<g>
					<rect x="454.004" y="603.445" style="fill:#F4AA2A;" width="13.223" height="63.906"/>
					<polygon style="fill:#F4AA2A;" points="454.004,667.352 467.227,667.352 428.055,603.445 414.836,603.445 					"/>
				</g>
				<g>
					<rect x="506.395" y="603.445" style="fill:#F4AA2A;" width="13.215" height="63.906"/>
					<polygon style="fill:#F4AA2A;" points="506.395,667.352 519.609,667.352 480.445,603.445 467.227,603.445 					"/>
				</g>
				<g>
					<rect x="558.781" y="603.445" style="fill:#F4AA2A;" width="13.211" height="63.906"/>
					<polygon style="fill:#F4AA2A;" points="558.781,667.352 571.992,667.352 532.824,603.445 519.609,603.445 					"/>
				</g>
				<g>
					<rect x="611.164" y="603.445" style="fill:#F4AA2A;" width="13.215" height="63.906"/>
					<polygon style="fill:#F4AA2A;" points="611.164,667.352 624.379,667.352 585.211,603.445 571.992,603.445 					"/>
				</g>
				<g>
					<rect x="663.555" y="603.445" style="fill:#F4AA2A;" width="13.207" height="63.906"/>
					<polygon style="fill:#F4AA2A;" points="663.555,667.352 676.762,667.352 637.594,603.445 624.379,603.445 					"/>
				</g>
				<g>
					<rect x="715.93" y="603.445" style="fill:#F4AA2A;" width="13.223" height="63.906"/>
					<polygon style="fill:#F4AA2A;" points="715.93,667.352 729.152,667.352 689.98,603.445 676.762,603.445 					"/>
				</g>
				<g>
					<rect x="768.316" y="603.445" style="fill:#F4AA2A;" width="13.215" height="63.906"/>
					<polygon style="fill:#F4AA2A;" points="768.316,667.352 781.531,667.352 742.367,603.445 729.152,603.445 					"/>
				</g>
				<g>
					<rect x="820.703" y="603.445" style="fill:#F4AA2A;" width="13.219" height="63.906"/>
					<polygon style="fill:#F4AA2A;" points="820.703,667.352 833.922,667.352 794.754,603.445 781.531,603.445 					"/>
				</g>
				<g>
					<rect x="873.082" y="603.445" style="fill:#F4AA2A;" width="13.223" height="63.906"/>
					<polygon style="fill:#F4AA2A;" points="873.082,667.352 886.305,667.352 847.141,603.445 833.922,603.445 					"/>
				</g>
				<g>
					<rect x="925.473" y="603.445" style="fill:#F4AA2A;" width="13.219" height="63.906"/>
					<polygon style="fill:#F4AA2A;" points="925.473,667.352 938.691,667.352 899.523,603.445 886.305,603.445 					"/>
				</g>
				<g>
					<rect x="977.863" y="603.445" style="fill:#F4AA2A;" width="13.215" height="63.906"/>
					<polygon style="fill:#F4AA2A;" points="977.863,667.352 991.078,667.352 951.91,603.445 938.691,603.445 					"/>
				</g>
				<g>
					<rect x="1030.246" y="603.445" style="fill:#F4AA2A;" width="13.215" height="63.906"/>
					<polygon style="fill:#F4AA2A;" points="1030.246,667.352 1043.461,667.352 1004.297,603.445 991.078,603.445 					"/>
				</g>
				<g>
					<rect x="1082.637" y="603.445" style="fill:#F4AA2A;" width="13.211" height="63.906"/>
					<polygon style="fill:#F4AA2A;" points="1082.637,667.352 1095.848,667.352 1056.68,603.445 1043.461,603.445 					"/>
				</g>
				<g>
					<rect x="1135.02" y="603.445" style="fill:#F4AA2A;" width="13.215" height="63.906"/>
					<polygon style="fill:#F4AA2A;" points="1135.02,667.352 1148.234,667.352 1109.066,603.445 1095.848,603.445 					"/>
				</g>
				<g>
					<polygon style="fill:#F4AA2A;" points="1224.84,667.352 1241.121,667.352 1161.453,603.445 1141.617,603.445 					"/>
				</g>
			</g>
			<g>
				<g>
					<rect x="516.297" y="382.73" style="fill:#F4AA2A;" width="13.219" height="1174.625"/>
					<rect x="580.207" y="467.578" style="fill:#F4AA2A;" width="13.215" height="1089.777"/>
					<rect x="578.016" y="467.578" style="fill:#C46D1F;" width="4.379" height="1089.777"/>
					<rect x="511.91" y="362.984" style="fill:#C46D1F;" width="4.387" height="1194.371"/>
				</g>
				<g>
					<rect x="522.902" y="1471.762" style="fill:#F4AA2A;" width="63.914" height="13.219"/>
					<polygon style="fill:#F4AA2A;" points="522.902,1484.98 522.902,1471.762 586.816,1510.934 586.816,1524.152 					"/>
				</g>
				<g>
					<rect x="522.902" y="1419.379" style="fill:#F4AA2A;" width="63.914" height="13.211"/>
					<polygon style="fill:#F4AA2A;" points="522.902,1432.59 522.902,1419.379 586.816,1458.551 586.816,1471.762 					"/>
				</g>
				<g>
					<rect x="522.902" y="1366.992" style="fill:#F4AA2A;" width="63.914" height="13.215"/>
					<polygon style="fill:#F4AA2A;" points="522.902,1380.207 522.902,1366.992 586.816,1406.164 586.816,1419.379 					"/>
				</g>
				<g>
					<rect x="522.902" y="1314.609" style="fill:#F4AA2A;" width="63.914" height="13.215"/>
					<polygon style="fill:#F4AA2A;" points="522.902,1327.824 522.902,1314.609 586.816,1353.781 586.816,1366.992 					"/>
				</g>
				<g>
					<rect x="522.902" y="1262.219" style="fill:#F4AA2A;" width="63.914" height="13.219"/>
					<polygon style="fill:#F4AA2A;" points="522.902,1275.438 522.902,1262.219 586.816,1301.391 586.816,1314.609 					"/>
				</g>
				<g>
					<rect x="522.902" y="1209.84" style="fill:#F4AA2A;" width="63.914" height="13.219"/>
					<polygon style="fill:#F4AA2A;" points="522.902,1223.059 522.902,1209.84 586.816,1249.008 586.816,1262.219 					"/>
				</g>
				<g>
					<rect x="522.902" y="1157.457" style="fill:#F4AA2A;" width="63.914" height="13.211"/>
					<polygon style="fill:#F4AA2A;" points="522.902,1170.668 522.902,1157.457 586.816,1196.621 586.816,1209.84 					"/>
				</g>
				<g>
					<rect x="522.902" y="1105.066" style="fill:#F4AA2A;" width="63.914" height="13.219"/>
					<polygon style="fill:#F4AA2A;" points="522.902,1118.285 522.902,1105.066 586.816,1144.234 586.816,1157.457 					"/>
				</g>
				<g>
					<rect x="522.902" y="1052.684" style="fill:#F4AA2A;" width="63.914" height="13.219"/>
					<polygon style="fill:#F4AA2A;" points="522.902,1065.902 522.902,1052.684 586.816,1091.855 586.816,1105.066 					"/>
				</g>
				<g>
					<rect x="522.902" y="1000.293" style="fill:#F4AA2A;" width="63.914" height="13.219"/>
					<polygon style="fill:#F4AA2A;" points="522.902,1013.512 522.902,1000.293 586.816,1039.461 586.816,1052.684 					"/>
				</g>
				<g>
					<rect x="522.902" y="947.91" style="fill:#F4AA2A;" width="63.914" height="13.219"/>
					<polygon style="fill:#F4AA2A;" points="522.902,961.129 522.902,947.91 586.816,987.082 586.816,1000.293 					"/>
				</g>
				<g>
					<rect x="522.902" y="895.523" style="fill:#F4AA2A;" width="63.914" height="13.215"/>
					<polygon style="fill:#F4AA2A;" points="522.902,908.738 522.902,895.523 586.816,934.695 586.816,947.91 					"/>
				</g>
				<g>
					<rect x="522.902" y="843.137" style="fill:#F4AA2A;" width="63.914" height="13.223"/>
					<polygon style="fill:#F4AA2A;" points="522.902,856.359 522.902,843.137 586.816,882.305 586.816,895.523 					"/>
				</g>
				<g>
					<rect x="522.902" y="790.762" style="fill:#F4AA2A;" width="63.914" height="13.211"/>
					<polygon style="fill:#F4AA2A;" points="522.902,803.973 522.902,790.762 586.816,829.926 586.816,843.137 					"/>
				</g>
				<g>
					<rect x="522.902" y="738.371" style="fill:#F4AA2A;" width="63.914" height="13.215"/>
					<polygon style="fill:#F4AA2A;" points="522.902,751.586 522.902,738.371 586.816,777.539 586.816,790.762 					"/>
				</g>
				<g>
					<rect x="522.902" y="685.988" style="fill:#F4AA2A;" width="63.914" height="13.215"/>
					<polygon style="fill:#F4AA2A;" points="522.902,699.203 522.902,685.988 586.816,725.156 586.816,738.371 					"/>
				</g>
				<g>
					<polygon style="fill:#F4AA2A;" points="516.297,395.176 516.297,362.984 593.422,467.578 593.422,496.73 					"/>
				</g>
			</g>
			<g>
				<polygon style="fill:#F4AA2A;" points="625.168,690.926 480.168,690.926 480.168,545.918 559.031,545.918 625.168,607.918 				
					"/>
				<g>
					<polygon style="fill:#0E739A;" points="597.965,653.211 507.367,653.211 507.367,562.613 554.859,562.613 597.965,602.574 
											"/>
					<polygon style="fill:#91CBEE;" points="590.152,637.586 515.184,637.586 515.184,567.563 546.676,567.563 590.152,607.918 
											"/>
				</g>
			</g>
			<g>
				<g>
					<rect x="1211.879" y="671.117" style="fill:#475054;" width="3.969" height="118.023"/>
					<rect x="1258.863" y="671.117" style="fill:#475054;" width="3.969" height="118.023"/>
				</g>
				<g>
					<rect x="1236.051" y="793.793" style="fill:#475054;" width="3.969" height="77.582"/>
				</g>
				<polygon style="fill:#C46D1F;" points="1208,784.652 1208,813.402 1237.359,835.504 1266.707,813.402 1266.707,784.652 				"/>
				<path style="fill:#F4AA2A;" d="M1273.078,671.117c0,19.731-15.988,35.731-35.719,35.731c-19.738,0-35.727-16-35.727-35.731
					c0-19.727,15.988-35.719,35.727-35.719C1257.09,635.398,1273.078,651.391,1273.078,671.117z"/>
				<path style="fill:#475054;" d="M1264.898,671.117c0,15.211-12.328,27.547-27.539,27.547s-27.543-12.336-27.543-27.547
					c0-15.211,12.332-27.535,27.543-27.535S1264.898,655.906,1264.898,671.117z"/>
				<path style="fill:#C0D1DA;" d="M1260.168,671.117c0,12.606-10.219,22.813-22.809,22.813c-12.602,0-22.816-10.207-22.816-22.813
					c0-12.598,10.215-22.809,22.816-22.809C1249.949,648.309,1260.168,658.519,1260.168,671.117z"/>
				<polygon style="fill:#F4AA2A;" points="1208,773.93 1208,807.824 1237.359,824.773 1266.707,807.824 1266.707,773.93 				"/>
				<path style="fill:#C46D1F;" d="M1246.098,793.793c0,4.82-3.918,8.738-8.738,8.738c-4.836,0-8.75-3.918-8.75-8.738
					c0-4.832,3.914-8.746,8.75-8.746C1242.18,785.047,1246.098,788.961,1246.098,793.793z"/>
				<path style="fill:#C46D1F;" d="M1237.359,778.43c-8.484,0-15.367,6.875-15.367,15.363c0,8.476,6.883,15.359,15.367,15.359
					c8.477,0,15.355-6.883,15.355-15.359C1252.715,785.305,1245.836,778.43,1237.359,778.43z M1237.359,806.316
					c-6.918,0-12.527-5.609-12.527-12.523c0-6.918,5.609-12.527,12.527-12.527c6.91,0,12.52,5.609,12.52,12.527
					C1249.879,800.707,1244.27,806.316,1237.359,806.316z"/>
				<path style="fill:#F4AA2A;" d="M1261.371,920.449c-4.156,8.563-12.91,14.477-23.066,14.477
					c-14.184,0-25.676-11.496-25.676-25.676c0-14.176,11.492-25.676,25.676-25.676c1.723,0,3.41,0.176,5.031,0.504v-0.504h0.02
					v-29.41h-10.109V875c-16.742,2.449-29.617,16.828-29.617,34.25c0,19.148,15.527,34.668,34.676,34.668
					c15.211,0,28.109-9.824,32.773-23.469H1261.371z"/>
			</g>
		</g>
		<rect x="465.266" y="1544.375" style="fill:#C0D1DA;" width="179.184" height="99.789"/>
		<rect x="593.422" y="1544.375" style="fill:#9CA7B0;" width="51.027" height="99.789"/>
		<rect x="443.715" y="1621.746" style="fill:#9CA7B0;" width="222.293" height="44.82"/>
		<rect x="606.875" y="1621.746" style="fill:#879199;" width="59.133" height="44.82"/>
		<polygon style="fill:#FFFFFF;" points="530.527,637.586 522.902,637.586 560.652,580.527 565.512,584.797 		"/>
		<polygon style="fill:#FFFFFF;" points="546.219,637.586 538.594,637.586 570.285,589.945 575.148,594.211 		"/>
		<rect x="355.84" y="596.832" style="fill:#F4AA2A;" width="13.219" height="77.129"/>
		<g>
			<polygon style="fill:#F4AA2A;" points="358.66,667.352 371.879,667.352 332.707,603.445 319.496,603.445 			"/>
		</g>
		<rect x="308.211" y="603.445" style="fill:#F4AA2A;" width="13.211" height="63.906"/>
		<g>
			<g>
				<polygon style="fill:#F4AA2A;" points="226.898,667.352 210.621,667.352 290.289,603.445 310.113,603.445 				"/>
			</g>
		</g>
		<rect x="262.875" y="673.961" style="fill:#F4AA2A;" width="83.043" height="38.215"/>
		<rect x="322.273" y="673.961" style="fill:#C46D1F;" width="23.645" height="38.215"/>
	</g>
	<g>
		<path style="fill:#707B81;" d="M1506.117,921.664c0,23.367-18.945,42.316-42.32,42.316c-23.367,0-42.309-18.949-42.309-42.316
			c0-23.371,18.941-42.316,42.309-42.316C1487.172,879.348,1506.117,898.293,1506.117,921.664z"/>
		<path style="fill:#F4AA2A;" d="M1558.324,756.234h-0.008c7.305-14.395,11.453-30.664,11.453-47.918
			c0-58.527-47.441-105.969-105.973-105.969c-58.523,0-105.969,47.441-105.969,105.969c0,17.609,4.324,34.199,11.918,48.816l0,0
			c11.406,25.191,27.719,29.695,27.719,66.34c0,36.641,29.699,66.348,66.332,66.348c36.645,0,66.344-29.707,66.344-66.348
			c0-24.629,8.207-36.645,17.738-50.68c3.922-5.106,7.387-10.586,10.332-16.375C1558.25,756.359,1558.281,756.305,1558.324,756.234z
			"/>
		<path style="fill:#C46D1F;" d="M1491.281,871.617c-36.641,0-66.344-29.699-66.344-66.344c0-36.641-16.297-41.152-27.707-66.348
			c-7.598-14.613-11.918-31.199-11.918-48.809c0-30.953,13.277-58.801,34.441-78.176c-36.531,16.727-61.926,53.574-61.926,96.375
			c0,17.609,4.324,34.199,11.918,48.816c11.406,25.191,27.719,29.695,27.719,66.34c0,36.641,29.699,66.348,66.332,66.348
			c19.527,0,37.086-8.441,49.223-21.863C1506.203,870.32,1498.895,871.617,1491.281,871.617z"/>
		<rect x="1400.563" y="847.477" style="fill:#C0D1DA;" width="126.48" height="73.441"/>
		<rect x="1400.563" y="871.617" style="fill:#707B81;" width="126.48" height="25.156"/>
	</g>
	<g>
		<path style="fill:#90AEBD;" d="M1728.105,1599.086c0,22.301-18.09,40.383-40.383,40.383H778.531
			c-22.301,0-40.383-18.082-40.383-40.383v-508.367c0-22.301,18.082-40.383,40.383-40.383h909.191
			c22.293,0,40.383,18.082,40.383,40.383V1599.086z"/>
		<rect x="773.617" y="1084.367" style="fill:#475054;" width="919.012" height="521.074"/>
		<rect x="783.414" y="1095.246" style="fill:#FFFFFF;" width="899.426" height="499.309"/>
		<path style="fill:#78919D;" d="M603.894,1612.848v1.895c0,28.352,22.981,51.344,51.336,51.344h1155.793
			c28.352,0,51.328-22.992,51.328-51.344v-1.895H603.894z"/>
		<path style="fill:#A0B9C7;" d="M1859.828,1630.633c1.625-5.004,2.523-10.34,2.523-15.891v-1.895H603.894v1.895
			c0,5.551,0.91,10.887,2.531,15.891H1859.828z"/>
	</g>
	<g>
		<rect x="1284.734" y="1167.348" style="fill:#D4D6DA;" width="624.09" height="350.602"/>
		<rect x="1284.734" y="1241.004" style="fill:#F4AA2A;" width="624.09" height="180.098"/>
		<rect x="1284.734" y="1167.348" style="fill:#A0ADB6;" width="624.09" height="29.601"/>
		<rect x="1576.848" y="1205.633" style="fill:#7B858D;" width="39.863" height="6.641"/>
		<rect x="1296.641" y="1178.824" style="fill:#7B858D;" width="19.938" height="6.644"/>
		<rect x="1327.238" y="1178.824" style="fill:#7B858D;" width="19.938" height="6.644"/>
		<rect x="1357.828" y="1178.824" style="fill:#7B858D;" width="19.934" height="6.644"/>
		<polygon style="fill:#40484B;" points="1893.188,1175.754 1891.871,1174.445 1885.484,1180.836 1879.098,1174.445 
			1877.781,1175.754 1884.168,1182.148 1877.781,1188.535 1879.098,1189.855 1885.484,1183.465 1891.871,1189.855 
			1893.188,1188.535 1886.805,1182.148 		"/>
		<rect x="1322.57" y="1444.898" style="fill:#7B858D;" width="39.859" height="6.641"/>
		<rect x="1322.57" y="1462.73" style="fill:#7B858D;" width="219.055" height="6.644"/>
		<rect x="1322.57" y="1473.535" style="fill:#7B858D;" width="219.055" height="6.637"/>
		<rect x="1322.57" y="1484.332" style="fill:#7B858D;" width="219.055" height="6.645"/>
		<rect x="1322.57" y="1495.129" style="fill:#7B858D;" width="219.055" height="6.652"/>
		<rect x="1722.617" y="1462.73" style="fill:#7B858D;" width="162.867" height="6.644"/>
		<rect x="1722.617" y="1473.535" style="fill:#7B858D;" width="162.867" height="6.637"/>
		<rect x="1722.617" y="1484.332" style="fill:#7B858D;" width="162.867" height="6.645"/>
		<rect x="1722.617" y="1495.129" style="fill:#7B858D;" width="162.867" height="6.652"/>
		<rect x="1638.5" y="1205.633" style="fill:#7B858D;" width="39.859" height="6.641"/>
		<rect x="1700.145" y="1205.633" style="fill:#7B858D;" width="39.863" height="6.641"/>
		<rect x="1761.797" y="1205.633" style="fill:#7B858D;" width="39.863" height="6.641"/>
		<rect x="1823.449" y="1205.633" style="fill:#7B858D;" width="39.855" height="6.641"/>
		<rect x="1559.742" y="1260.945" style="fill:#FFFFFF;" width="325.738" height="137.668"/>
		<g>
			<path style="fill:#E86C52;" d="M1638.5,1494.129c0,3.102-2.52,5.613-5.629,5.613h-45.488c-3.105,0-5.617-2.512-5.617-5.613
				v-45.504c0-3.098,2.512-5.613,5.617-5.613h45.488c3.109,0,5.629,2.516,5.629,5.613V1494.129z"/>
			<path style="fill:#FFFFFF;" d="M1615.402,1474.148v-5.094c2.723-1.016,4.645-3.621,4.645-6.68c0-3.953-3.188-7.137-7.129-7.137
				c-3.949,0-7.145,3.184-7.145,7.137c0,2.211,1.008,4.188,2.594,5.496h-5.184c1.582-1.309,2.59-3.285,2.59-5.496
				c0-3.953-3.191-7.137-7.137-7.137c-3.941,0-7.137,3.184-7.137,7.137c0,2.914,1.742,5.418,4.258,6.523v18.621h19.645v-6.277
				l13.363,3.922v-14.938L1615.402,1474.148z M1612.918,1458.832c1.953,0,3.535,1.59,3.535,3.543c0,1.949-1.582,3.531-3.535,3.531
				c-1.961,0-3.543-1.582-3.543-3.531C1609.375,1460.422,1610.957,1458.832,1612.918,1458.832z M1598.637,1458.832
				c1.953,0,3.531,1.59,3.531,3.543c0,1.949-1.578,3.531-3.531,3.531c-1.961,0-3.539-1.582-3.539-3.531
				C1595.098,1460.422,1596.676,1458.832,1598.637,1458.832z"/>
		</g>
		<path style="fill:#F4AA2A;" d="M1706.734,1494.129c0,3.102-2.516,5.613-5.629,5.613h-45.492c-3.102,0-5.621-2.512-5.621-5.613
			v-45.504c0-3.098,2.52-5.613,5.621-5.613h45.492c3.113,0,5.629,2.516,5.629,5.613V1494.129z"/>
	</g>
	<g>
		<polygon style="fill:#F4AA2A;" points="1025.805,1699.133 969.23,1723.531 1025.805,1747.926 1053.977,1747.926 
			1053.977,1699.133 		"/>
		<polygon style="fill:#5E3300;" points="988.394,1715.27 969.23,1723.531 988.394,1731.789 		"/>
		<path style="fill:#E86C52;" d="M1443.48,1723.531c0,13.359-10.836,24.191-24.199,24.191s-24.195-10.832-24.195-24.191
			c0-13.367,10.832-24.199,24.195-24.199S1443.48,1710.164,1443.48,1723.531z"/>
		<rect x="1033.629" y="1699.332" style="fill:#F4AA2A;" width="351.527" height="48.391"/>
		<rect x="1385.156" y="1699.332" style="fill:#C0D1DA;" width="28.211" height="48.391"/>
		<rect x="1393.906" y="1699.332" style="fill:#707B81;" width="10.711" height="48.391"/>
		<rect x="1033.629" y="1713.164" style="fill:#C46D1F;" width="351.527" height="20.73"/>
	</g>
</g>
</svg>
